<svg width="266" height="266" viewBox="0 0 266 266" fill="none" xmlns="http://www.w3.org/2000/svg">
<path fill-rule="evenodd" clip-rule="evenodd" d="M91.4353 13.2825C96.7242 7.90013 103.735 5 112 5C120.265 5 127.276 7.90013 132.565 13.2825C137.528 18.3334 140.261 24.8391 141.887 31.0099C145.004 42.8401 145.002 57.5168 145 69.1928C145 69.4635 145 69.7326 145 70H123C123 57.3012 122.924 45.3857 120.613 36.6151C119.489 32.3484 118.097 29.9479 116.873 28.7019C115.974 27.7874 114.735 27 112 27C109.265 27 108.026 27.7874 107.127 28.7019C105.903 29.9479 104.511 32.3484 103.387 36.6151C101.076 45.3857 101 57.3012 101 70L101 79L196 79C196.267 79 196.537 78.9999 196.807 78.9999C208.483 78.9982 223.16 78.9961 234.99 82.113C241.161 83.7388 247.667 86.472 252.718 91.4352C258.1 96.7241 261 103.735 261 112C261 120.265 258.1 127.276 252.718 132.565C247.667 137.528 241.161 140.261 234.99 141.887C223.16 145.004 208.483 145.002 196.807 145C196.537 145 196.267 145 196 145V123C208.699 123 220.614 122.924 229.385 120.613C233.652 119.489 236.052 118.097 237.298 116.873C238.213 115.974 239 114.735 239 112C239 109.265 238.213 108.026 237.298 107.127C236.052 105.903 233.652 104.511 229.385 103.387C220.614 101.076 208.699 101 196 101L187 101L187 196C187 196.267 187 196.536 187 196.807C187.002 208.483 187.004 223.16 183.887 234.99C182.261 241.161 179.528 247.667 174.565 252.718C169.276 258.1 162.265 261 154 261C145.735 261 138.724 258.1 133.435 252.718C128.472 247.667 125.739 241.161 124.113 234.99C120.996 223.16 120.998 208.483 121 196.807C121 196.537 121 196.267 121 196H143C143 208.699 143.076 220.614 145.387 229.385C146.511 233.652 147.903 236.052 149.127 237.298C150.026 238.213 151.265 239 154 239C156.735 239 157.974 238.213 158.873 237.298C160.097 236.052 161.489 233.652 162.613 229.385C164.924 220.614 165 208.699 165 196V187H70.0001C69.7327 187 69.4636 187 69.1929 187C57.5169 187.002 42.8402 187.004 31.01 183.887C24.8392 182.261 18.3335 179.528 13.2825 174.565C7.90022 169.276 5.00009 162.265 5.00009 154C5.00009 145.735 7.90022 138.724 13.2825 133.435C18.3335 128.472 24.8392 125.739 31.01 124.113C42.8401 120.996 57.5168 120.998 69.1928 121C69.4636 121 69.7327 121 70.0001 121V143C57.3012 143 45.3857 143.076 36.6152 145.387C32.3485 146.511 29.948 147.903 28.702 149.127C27.7875 150.026 27.0001 151.265 27.0001 154C27.0001 156.735 27.7875 157.974 28.702 158.873C29.948 160.097 32.3485 161.489 36.6152 162.613C45.3857 164.924 57.3012 165 70.0001 165H79.0001L79.0001 70C79.0001 69.7326 79 69.4635 79 69.1927C78.9983 57.5167 78.9962 42.84 82.1131 31.0099C83.7389 24.8391 86.4721 18.3334 91.4353 13.2825ZM101 165H165L165 101L101 101V165Z" fill="#319319" stroke="#004A3D" stroke-width="9"/>
</svg>